<svg xmlns="http://www.w3.org/2000/svg" viewBox="0 0 479.86 442.75"><defs><style>.cls-1{opacity:0.95;}</style></defs><title>Asset 1</title><g id="Layer_2" data-name="Layer 2"><g id="Layer_1-2" data-name="Layer 1"><g class="cls-1"><path d="M393.84,270.71a86,86,0,1,0,86,86,86.12,86.12,0,0,0-86-86"/></g><g class="cls-1"><path d="M86,0a86,86,0,1,0,86,86A86.12,86.12,0,0,0,86,0"/></g><g class="cls-1"><path d="M465.52,0h-105l-.79,0h-.32l-.68,0h-.39l-.7,0-.42,0-.75,0-.47,0-.83.05-.43,0-1.26.09h-.07L352,.49l-.42.05-1,.09L350,.69l-1,.1-.6.07-1,.12-.61.08-1.07.14-.56.08-1.33.19-.34.06-1.69.27-.43.08-1.29.23-.63.12-1.12.23-.68.14-1.1.24-.69.15-1.14.28-.65.16c-.43.1-.86.22-1.29.33l-.51.13c-.59.17-1.19.33-1.78.51l-.32.1c-.49.14-1,.3-1.47.45l-.61.21L327,5.55l-.68.24-1.09.41-.7.26-1.08.44-.67.27-1.15.51-.56.25-1.68.8c-1.55.78-3,1.6-4.48,2.44s-2.63,1.58-3.87,2.4c-.91.59-1.8,1.2-2.66,1.81-1.66,1.18-3.23,2.38-4.71,3.58-.51.41-1,.82-1.49,1.23-1.54,1.31-3,2.59-4.28,3.84-2.27,2.16-4.18,4.2-5.72,5.94a66,66,0,0,0-4.68,5.86L148.79,239.28,10.12,442.74H115.19l.73,0h.33l.67,0,.4,0,.68,0,.45,0,.73,0,.46,0,.83-.05.45,0,1.22-.09h.11l1.39-.11.46,0,1-.1.56-.06,1-.1.61-.07,1-.12.62-.07,1.05-.14.59-.09c.42-.05.85-.12,1.28-.19l.38,0,1.69-.28.45-.08,1.27-.23.63-.12,1.12-.22.69-.15c.36-.07.73-.15,1.09-.24l.7-.15,1.13-.27.66-.16,1.28-.34.51-.13c.59-.17,1.19-.33,1.78-.51l.33-.1c.49-.15,1-.29,1.45-.45l.62-.2,1.16-.4.69-.24,1.09-.4.69-.27,1.08-.43.66-.28c.39-.16.78-.33,1.16-.51l.56-.25c.56-.25,1.12-.52,1.67-.8h0c2.17-1.09,4.23-2.25,6.19-3.46.73-.45,1.46-.91,2.17-1.37.9-.6,1.79-1.2,2.65-1.81s1.52-1.1,2.25-1.65a97.12,97.12,0,0,0,10.38-9.12l0,0c1-1,1.92-2,2.74-2.9s1.57-1.78,2.22-2.55c.86-1,1.56-1.91,2.08-2.59l.36-.48.53-.72.29-.42Z"/></g></g></g></svg>