<svg xmlns="http://www.w3.org/2000/svg" xmlns:xlink="http://www.w3.org/1999/xlink" viewBox="0 0 614 45.28"><defs><style>.cls-1{fill:none;}.cls-2{fill:#071b21;}.cls-3{clip-path:url(#clip-path);}</style><clipPath id="clip-path"><rect class="cls-1" width="614" height="45.28"/></clipPath></defs><title>Asset 2</title><g id="Layer_2" data-name="Layer 2"><g id="Layer_1-2" data-name="Layer 1"><polygon class="cls-2" points="1.79 1.02 2.68 6.71 25.61 6.71 0 38.83 0.83 44.45 34.05 44.45 33.28 38.83 7.79 38.83 33.92 6.71 33.09 1.02 1.79 1.02"/><path class="cls-2" d="M146.22,10.8l6.52,16.92H139.9Zm-3-9.78L126.61,44.45h7.09l4.15-10.92H154.9L159.18,45l7.09-1L149.54,1Z"/><polygon class="cls-2" points="197.39 1.02 197.39 44.45 224.91 44.45 223.89 38.83 204.54 38.83 204.54 1.02 197.39 1.02"/><path class="cls-2" d="M275.63,10.8l6.52,16.92H269.32Zm-3-9.78L256,44.45h7.1l4.15-10.92h17.05L288.6,45l7.09-1L279,1Z"/><polygon class="cls-2" points="351.01 1.02 351.01 31.61 329.68 1.02 322.91 1.02 322.91 44.45 330.06 44.45 330.06 13.67 351.39 44.45 358.23 44.45 358.23 1.02 351.01 1.02"/><g class="cls-3"><path class="cls-2" d="M403.71,7.15h-9.13v31.3h8.69a11.34,11.34,0,0,0,9.16-4q3.36-4,3.35-11.91c0-4.86-1-8.63-3-11.34s-5-4.06-9.07-4.06m-.38,37.3H387.42V1h16q9.71,0,14.69,5.88t5,15.58A27.15,27.15,0,0,1,420.83,34a17.4,17.4,0,0,1-6.77,7.7,20.12,20.12,0,0,1-10.73,2.74"/><path class="cls-2" d="M531,7h-5.68V21.65h5.56a12.36,12.36,0,0,0,6.89-1.72,6.09,6.09,0,0,0,2.62-5.49c0-2.65-.81-4.54-2.43-5.69S534,7,531,7M518.15,1h13q7.47,0,12.14,3.29t4.66,9.8a11.92,11.92,0,0,1-2,7,13,13,0,0,1-5.42,4.47l10.79,18.91h-7.73l-9.45-17.12a26.49,26.49,0,0,1-3.52.19h-5.23V44.46h-7.16Z"/><path class="cls-2" d="M585.58,41.84l1.59-5.75a33.16,33.16,0,0,0,5.18,2A19.91,19.91,0,0,0,598,39a12,12,0,0,0,6.45-1.43,4.56,4.56,0,0,0,2.23-4.06,4.49,4.49,0,0,0-1.21-3,12.46,12.46,0,0,0-3.1-2.46q-1.87-1.08-5.46-2.87a36.08,36.08,0,0,1-9-6.1,10.27,10.27,0,0,1-3-7.57,10.08,10.08,0,0,1,1.76-5.84,11.82,11.82,0,0,1,5-4.09A18.56,18.56,0,0,1,599.37,0a22.85,22.85,0,0,1,6.1.86,32.06,32.06,0,0,1,5.78,2.21l-2.42,5.68A33.9,33.9,0,0,0,604.32,7a16.12,16.12,0,0,0-4.69-.64A10.34,10.34,0,0,0,594.2,7.6a4.13,4.13,0,0,0-2.11,3.77,4.83,4.83,0,0,0,1.12,3.16A10.44,10.44,0,0,0,596.15,17c1.21.7,3.12,1.71,5.71,3a62,62,0,0,1,6.55,3.8,14.62,14.62,0,0,1,4,4.09A9.94,9.94,0,0,1,614,33.47a10.56,10.56,0,0,1-1.85,6.13,12.05,12.05,0,0,1-5.46,4.18,22.56,22.56,0,0,1-8.66,1.5,26.29,26.29,0,0,1-6.77-1.11,18.71,18.71,0,0,1-5.68-2.33"/></g><polygon class="cls-2" points="74.42 6.64 77.39 6.64 93.45 6.64 92.43 1.02 67.27 1.02 67.27 6.64 74.42 6.64"/><polygon class="cls-2" points="77.39 19.61 67.27 19.61 67.27 44.46 96.2 44.46 95.11 38.83 74.42 38.83 74.42 25.23 89.94 25.23 88.85 19.61 77.39 19.61"/><polygon class="cls-2" points="462.67 6.64 467.15 6.64 481.71 6.64 480.69 1.02 455.52 1.02 455.52 6.64 462.67 6.64"/><polygon class="cls-2" points="467.14 19.61 455.52 19.61 455.52 44.46 484.45 44.46 483.37 38.83 462.67 38.83 462.67 25.23 478.19 25.23 477.11 19.61 467.14 19.61"/></g></g></svg>